<?xml version="1.0" encoding="UTF-8"?>
<svg id="Layer_1" data-name="Layer 1" xmlns="http://www.w3.org/2000/svg" viewBox="0 0 12.48 13.73">
  <defs>
    <style>
      .cls-1 {
        fill: #70d44b;
      }
    </style>
  </defs>
  <path class="cls-1" d="M10.11,11.01h1.9s-4.8-5.04-6.29-6.61c-.26-.27-.7-.25-.93.04-.48.59-.76,1.33-.81,2.1-.06,1.04.32,2.06,1.04,2.8l4.35,4.4h3.1l-2.37-2.72Z"/>
  <path class="cls-1" d="M5.69,11l-1.17-1.18c-.86-.89-1.31-2.1-1.24-3.33.07-1.23.67-2.38,1.62-3.16h0s0,0,0,0c.35.06.71-.02,1.01-.24-.07-.24-.16-.55-.22-.75-.02-.07.06-.13.12-.09l1.16.77c.3-.61.22-1.37-.26-1.9.1-.18.06-.44-.15-.57-.49-.29-1.2-.55-2.15-.55C2.76,0,0,1.5,0,5.18c0,2.12,1.36,4.57,3.86,5.47l-1.43,3.08h1.05l1.32-2.83c.29.05.58.09.89.1l-1.27,2.73h1.05l.94-2.01-.71-.72h0ZM4.84.67c.23,0,.42.19.42.42s-.19.42-.42.42-.42-.19-.42-.42.19-.42.42-.42Z"/>
</svg>